<svg width="15" height="14" viewBox="0 0 15 14" fill="none" xmlns="http://www.w3.org/2000/svg">
<path d="M8.22018 0.449696C8.1394 0.286753 7.97269 0.183594 7.79016 0.183594C7.60762 0.183594 7.44091 0.286753 7.36013 0.449696L5.39697 4.40944L1.00757 5.04396C0.826921 5.07007 0.676832 5.19602 0.620415 5.36883C0.563998 5.54165 0.611038 5.73137 0.741755 5.8582L3.91805 8.94026L3.16802 13.2927C3.13716 13.4718 3.21112 13.6528 3.3588 13.7596C3.50648 13.8664 3.70226 13.8805 3.86383 13.7959L7.79016 11.741L11.7165 13.7959C11.878 13.8805 12.0738 13.8664 12.2215 13.7596C12.3692 13.6528 12.4431 13.4718 12.4123 13.2927L11.6623 8.94026L14.8386 5.8582C14.9693 5.73137 15.0163 5.54165 14.9599 5.36883C14.9035 5.19602 14.7534 5.07007 14.5727 5.04396L10.1833 4.40944L8.22018 0.449696Z" fill="#00A6EA"/>
</svg>
