<svg width="29" height="26" viewBox="0 0 29 26" fill="none" xmlns="http://www.w3.org/2000/svg">
<path d="M14.4667 4.23529C16.7901 4.23529 20.4858 5.8 20.4858 9.99118C20.4858 12.4053 18.4152 15.2106 14.4667 18.1724C10.5182 15.2106 8.44766 12.3941 8.44766 9.99118C8.44766 5.8 12.1434 4.23529 14.4667 4.23529ZM14.4667 2C10.5302 2 6.04004 4.74941 6.04004 9.99118C6.04004 13.4782 8.84492 17.1553 14.4667 21C20.0885 17.1553 22.8934 13.4782 22.8934 9.99118C22.8934 4.74941 18.4032 2 14.4667 2Z" fill="#BDD7F2"/>
<path d="M14.4667 8C13.1425 8 12.0591 8.96 12.0591 10.1333C12.0591 11.3067 13.1425 12.2667 14.4667 12.2667C15.1052 12.2667 15.7176 12.0419 16.1691 11.6418C16.6207 11.2417 16.8743 10.6991 16.8743 10.1333C16.8743 9.56754 16.6207 9.02492 16.1691 8.62484C15.7176 8.22476 15.1052 8 14.4667 8V8ZM6.04004 21.8667H22.8934V24H6.04004V21.8667Z" fill="#BDD7F2"/>
</svg>
