<svg width="30" height="20" viewBox="0 0 30 20" fill="none" xmlns="http://www.w3.org/2000/svg">
<path d="M21.3655 11.4125C23.1693 12.575 24.4333 14.15 24.4333 16.25V20H29.7V16.25C29.7 13.525 24.9995 11.9125 21.3655 11.4125Z" fill="#BDD7F2"/>
<path d="M19.1666 10C22.0764 10 24.4332 7.7625 24.4332 5C24.4332 2.2375 22.0764 0 19.1666 0C18.5477 0 17.9684 0.125 17.4154 0.3C18.5082 1.5875 19.1666 3.225 19.1666 5C19.1666 6.775 18.5082 8.4125 17.4154 9.7C17.9684 9.875 18.5477 10 19.1666 10Z" fill="#BDD7F2"/>
<path d="M11.2667 10C14.1765 10 16.5333 7.7625 16.5333 5C16.5333 2.2375 14.1765 0 11.2667 0C8.35683 0 6 2.2375 6 5C6 7.7625 8.35683 10 11.2667 10ZM11.2667 2.5C12.715 2.5 13.9 3.625 13.9 5C13.9 6.375 12.715 7.5 11.2667 7.5C9.81833 7.5 8.63333 6.375 8.63333 5C8.63333 3.625 9.81833 2.5 11.2667 2.5Z" fill="#BDD7F2"/>
<path d="M11.2666 11.25C7.75111 11.25 0.733276 12.925 0.733276 16.25V20H21.7999V16.25C21.7999 12.925 14.7821 11.25 11.2666 11.25ZM19.1666 17.5H3.36661V16.2625C3.62994 15.3625 7.71161 13.75 11.2666 13.75C14.8216 13.75 18.9033 15.3625 19.1666 16.25V17.5Z" fill="#BDD7F2"/>
</svg>
