<svg width="141" height="35" viewBox="0 0 141 35" fill="none" xmlns="http://www.w3.org/2000/svg">
<path d="M32.2434 14.9737V13.2906C32.2434 11.8958 31.1177 10.7659 29.728 10.7659H24.5868H24.1592V5.17676C24.1592 3.78199 23.0334 2.6521 21.6404 2.6521H19.9634C18.5737 2.6521 17.4446 3.78199 17.4446 5.17676C17.4446 3.78199 16.3188 2.64874 14.9291 2.64874H13.2521C11.8625 2.64874 10.7367 3.77864 10.7367 5.17676V10.3367V10.7625H5.17123C3.78154 10.7625 2.65576 11.8924 2.65576 13.2872V14.9703C2.65576 16.3651 3.78154 17.4983 5.17123 17.4983C3.78154 17.4983 2.65576 18.6282 2.65576 20.023V21.7061C2.65576 23.1009 3.78154 24.2308 5.17123 24.2308H10.3091H10.7367V29.8166C10.7367 31.2113 11.8625 32.3412 13.2521 32.3412H14.9325C16.3222 32.3412 17.4513 31.2113 17.4513 29.8166C17.4513 31.2113 18.5771 32.3446 19.9701 32.3446H21.6471C23.0368 32.3446 24.1625 31.2147 24.1625 29.8166V24.6633V24.2341H29.728C31.1177 24.2341 32.2434 23.1042 32.2434 21.7095V20.0264C32.2434 18.6316 31.1177 17.4983 29.728 17.4983C31.1177 17.4983 32.2434 16.3684 32.2434 14.9737ZM24.1592 17.4983C20.4511 17.4983 17.4479 20.5125 17.4479 24.2341C17.4479 20.5192 14.4548 17.5084 10.7567 17.4983C14.4514 17.4883 17.4446 14.4808 17.4479 10.7726C17.4546 14.4875 20.4578 17.4983 24.1592 17.4983Z" fill="white"/>
<path d="M17.448 15.8052C16.516 15.8052 15.761 16.5629 15.761 17.4983C15.761 18.4338 16.516 19.1915 17.448 19.1915C18.38 19.1915 19.135 18.4338 19.135 17.4983C19.135 16.5663 18.38 15.8052 17.448 15.8052Z" fill="white"/>
<path d="M115.458 13.2704C115.712 13.4649 115.879 13.9645 115.982 14.7792L117.095 24.4923C117.095 24.6566 117.021 24.7337 116.854 24.7337H114.947C114.813 24.7337 114.796 24.6901 114.783 24.4923L114.409 21.3541H110.397L109.03 24.4923C108.957 24.6868 108.91 24.7337 108.777 24.7337H106.869C106.719 24.7337 106.675 24.6599 106.719 24.4923L110.925 14.7792C111.285 13.9645 111.616 13.4683 111.93 13.2704C112.244 13.076 112.832 12.9687 113.717 12.9687C114.629 12.9687 115.201 13.0726 115.458 13.2704ZM112.946 15.3961L111.232 19.3927H114.192L113.741 15.3961C113.697 14.9904 113.681 14.9603 113.397 14.9603C113.156 14.9569 113.113 15.0173 112.946 15.3961Z" fill="white"/>
<path d="M127.658 13.7968C128.212 14.34 128.363 15.3492 128.122 16.8445C127.898 18.3365 127.43 19.3189 126.726 19.8017C126.034 20.2677 124.831 20.5091 123.134 20.5091H121.27L120.639 24.4923C120.626 24.6566 120.535 24.7337 120.385 24.7337H118.478C118.297 24.7337 118.267 24.6901 118.284 24.4923L120.041 13.3475C120.058 13.2134 120.145 13.1531 120.295 13.1363C121.541 13.0324 122.894 12.972 124.324 12.972C125.991 12.9687 127.1 13.2402 127.658 13.7968ZM122.142 15.034L121.558 18.6852H123.181C124.097 18.6852 124.728 18.5813 125.059 18.37C125.389 18.1454 125.613 17.6626 125.733 16.9082C125.854 16.1706 125.777 15.671 125.51 15.4162C125.239 15.1614 124.654 15.0407 123.766 15.0407H122.142V15.034Z" fill="white"/>
<path d="M137.77 13.7968C138.324 14.34 138.474 15.3492 138.234 16.8445C138.01 18.3365 137.542 19.3189 136.838 19.8017C136.146 20.2677 134.943 20.5091 133.246 20.5091H131.382L130.751 24.4923C130.738 24.6566 130.647 24.7337 130.497 24.7337H128.59C128.409 24.7337 128.379 24.6901 128.396 24.4923L130.153 13.3475C130.17 13.2134 130.257 13.1531 130.407 13.1363C131.653 13.0324 133.006 12.972 134.436 12.972C136.103 12.9687 137.215 13.2402 137.77 13.7968ZM132.254 15.034L131.67 18.6852H133.293C134.209 18.6852 134.84 18.5813 135.171 18.37C135.501 18.1454 135.725 17.6626 135.845 16.9082C135.966 16.1706 135.889 15.671 135.622 15.4162C135.351 15.1614 134.766 15.0407 133.878 15.0407H132.254V15.034Z" fill="white"/>
<path d="M41.356 22.5859L45.208 9.64844H48.959L43.2651 26H40.7944L41.356 22.5859ZM37.8071 9.64844L41.6479 22.5859L42.2319 26H39.7388L34.0786 9.64844H37.8071ZM56.2812 12.4448L51.834 26H48.2515L54.3271 9.64844H56.6069L56.2812 12.4448ZM59.9761 26L55.5176 12.4448L55.1582 9.64844H57.4604L63.5698 26H59.9761ZM59.7739 19.9131V22.5522H51.1377V19.9131H59.7739ZM71.4536 20.1714H67.2871V17.5435H71.4536C72.0975 17.5435 72.6216 17.4386 73.0259 17.229C73.4302 17.0119 73.7259 16.7124 73.9131 16.3306C74.1003 15.9487 74.1938 15.5182 74.1938 15.0391C74.1938 14.5524 74.1003 14.0994 73.9131 13.6802C73.7259 13.2609 73.4302 12.924 73.0259 12.6694C72.6216 12.4149 72.0975 12.2876 71.4536 12.2876H68.4551V26H65.0859V9.64844H71.4536C72.7339 9.64844 73.8307 9.88053 74.7441 10.3447C75.665 10.8014 76.3688 11.4341 76.8555 12.2427C77.3421 13.0513 77.5854 13.9759 77.5854 15.0166C77.5854 16.0723 77.3421 16.9857 76.8555 17.7568C76.3688 18.528 75.665 19.1232 74.7441 19.5425C73.8307 19.9618 72.7339 20.1714 71.4536 20.1714ZM90.8823 23.3721V26H82.1787V23.3721H90.8823ZM83.2793 9.64844V26H79.9102V9.64844H83.2793ZM89.748 16.3081V18.8687H82.1787V16.3081H89.748ZM90.8711 9.64844V12.2876H82.1787V9.64844H90.8711ZM92.8477 9.64844H98.9458C100.196 9.64844 101.271 9.83561 102.169 10.21C103.075 10.5843 103.771 11.1383 104.258 11.8721C104.744 12.6058 104.988 13.508 104.988 14.5786C104.988 15.4546 104.838 16.207 104.539 16.8359C104.247 17.4574 103.831 17.9777 103.292 18.397C102.76 18.8088 102.135 19.1382 101.417 19.3853L100.35 19.9468H95.0488L95.0264 17.3188H98.9683C99.5597 17.3188 100.05 17.214 100.439 17.0044C100.829 16.7948 101.121 16.5028 101.315 16.1284C101.518 15.7541 101.619 15.3198 101.619 14.8257C101.619 14.3016 101.521 13.8486 101.327 13.4668C101.132 13.085 100.836 12.793 100.439 12.5908C100.043 12.3887 99.5448 12.2876 98.9458 12.2876H96.2168V26H92.8477V9.64844ZM101.989 26L98.2607 18.7114L101.821 18.689L105.594 25.8428V26H101.989Z" fill="white"/>
</svg>
