<svg width="77" height="11" viewBox="0 0 77 11" fill="none" xmlns="http://www.w3.org/2000/svg">
<path d="M5.8047 0.744249C5.74319 0.620176 5.61625 0.541626 5.47725 0.541626C5.33826 0.541626 5.21132 0.620176 5.14981 0.744249L3.65498 3.75938L0.312685 4.24253C0.17513 4.26241 0.0608461 4.35831 0.0178875 4.4899C-0.025071 4.6215 0.0107472 4.76595 0.110281 4.86253L2.52886 7.20935L1.95775 10.5235C1.93425 10.6598 1.99057 10.7977 2.10302 10.879C2.21547 10.9603 2.36455 10.971 2.48757 10.9067L5.47725 9.34194L8.46694 10.9067C8.58996 10.971 8.73904 10.9603 8.85149 10.879C8.96394 10.7977 9.02026 10.6598 8.99676 10.5235L8.42565 7.20935L10.8442 4.86253C10.9438 4.76595 10.9796 4.6215 10.9366 4.4899C10.8937 4.35831 10.7794 4.26241 10.6418 4.24253L7.29953 3.75938L5.8047 0.744249Z" fill="#FEAD7F"/>
<path d="M22.2374 0.744249C22.1759 0.620176 22.049 0.541626 21.91 0.541626C21.771 0.541626 21.6441 0.620176 21.5826 0.744249L20.0877 3.75938L16.7454 4.24253C16.6079 4.26241 16.4936 4.35831 16.4506 4.4899C16.4077 4.6215 16.4435 4.76595 16.543 4.86253L18.9616 7.20935L18.3905 10.5235C18.367 10.6598 18.4233 10.7977 18.5358 10.879C18.6482 10.9603 18.7973 10.971 18.9203 10.9067L21.91 9.34194L24.8997 10.9067C25.0227 10.971 25.1718 10.9603 25.2842 10.879C25.3967 10.7977 25.453 10.6598 25.4295 10.5235L24.8584 7.20935L27.277 4.86253C27.3765 4.76595 27.4123 4.6215 27.3694 4.4899C27.3264 4.35831 27.2121 4.26241 27.0746 4.24253L23.7323 3.75938L22.2374 0.744249Z" fill="#FEAD7F"/>
<path d="M38.6677 0.744249C38.6062 0.620176 38.4793 0.541626 38.3403 0.541626C38.2013 0.541626 38.0744 0.620176 38.0128 0.744249L36.518 3.75938L33.1757 4.24253C33.0382 4.26241 32.9239 4.35831 32.8809 4.4899C32.838 4.6215 32.8738 4.76595 32.9733 4.86253L35.3919 7.20935L34.8208 10.5235C34.7973 10.6598 34.8536 10.7977 34.9661 10.879C35.0785 10.9603 35.2276 10.971 35.3506 10.9067L38.3403 9.34194L41.33 10.9067C41.453 10.971 41.6021 10.9603 41.7145 10.879C41.827 10.7977 41.8833 10.6598 41.8598 10.5235L41.2887 7.20935L43.7073 4.86253C43.8068 4.76595 43.8426 4.6215 43.7997 4.4899C43.7567 4.35831 43.6424 4.26241 43.5049 4.24253L40.1626 3.75938L38.6677 0.744249Z" fill="#FEAD7F"/>
<path d="M55.1006 0.744249C55.0391 0.620176 54.9121 0.541626 54.7732 0.541626C54.6342 0.541626 54.5072 0.620176 54.4457 0.744249L52.9509 3.75938L49.6086 4.24253C49.471 4.26241 49.3567 4.35831 49.3138 4.4899C49.2708 4.6215 49.3066 4.76595 49.4062 4.86253L51.8248 7.20935L51.2537 10.5235C51.2302 10.6598 51.2865 10.7977 51.3989 10.879C51.5114 10.9603 51.6604 10.971 51.7835 10.9067L54.7732 9.34194L57.7628 10.9067C57.8859 10.971 58.0349 10.9603 58.1474 10.879C58.2598 10.7977 58.3162 10.6598 58.2927 10.5235L57.7215 7.20935L60.1401 4.86253C60.2397 4.76595 60.2755 4.6215 60.2325 4.4899C60.1896 4.35831 60.0753 4.26241 59.9377 4.24253L56.5954 3.75938L55.1006 0.744249Z" fill="#FEAD7F"/>
<path d="M71.5324 0.744249C71.4708 0.620176 71.3439 0.541626 71.2049 0.541626C71.0659 0.541626 70.939 0.620176 70.8775 0.744249L69.3826 3.75938L66.0403 4.24253C65.9028 4.26241 65.7885 4.35831 65.7455 4.4899C65.7026 4.6215 65.7384 4.76595 65.8379 4.86253L68.2565 7.20935L67.6854 10.5235C67.6619 10.6598 67.7182 10.7977 67.8307 10.879C67.9431 10.9603 68.0922 10.971 68.2152 10.9067L71.2049 9.34194L74.1946 10.9067C74.3176 10.971 74.4667 10.9603 74.5792 10.879C74.6916 10.7977 74.7479 10.6598 74.7244 10.5235L74.1533 7.20935L76.5719 4.86253C76.6714 4.76595 76.7072 4.6215 76.6643 4.4899C76.6213 4.35831 76.507 4.26241 76.3695 4.24253L73.0272 3.75938L71.5324 0.744249Z" fill="#FEAD7F"/>
</svg>
