<svg width="216" height="90" viewBox="0 0 216 90" fill="none" xmlns="http://www.w3.org/2000/svg">
<path d="M54.2028 84.7681C50.4483 84.7681 47.3988 81.7403 47.3988 78V63.039H65.5336V78C65.5336 81.7347 62.4897 84.7681 58.7351 84.7681H54.2028Z" fill="#0065CC"/>
<path d="M80.5797 45H65.5392L47.4044 63.039H80.5797C84.3342 63.039 87.3781 60.0111 87.3781 56.2764V51.7681C87.3781 48.0278 84.3342 45 80.5797 45Z" fill="#00A6EA"/>
<path d="M87.3781 38.2319C87.3781 41.9666 84.3342 45 80.5797 45H65.5392V26.961H80.5797C84.3342 26.961 87.3781 29.9889 87.3781 33.7236V38.2319Z" fill="#0065CC"/>
<path d="M47.3988 12V26.961L65.5336 45V12C65.5336 8.26529 62.4897 5.23746 58.7295 5.23746H54.1972C50.4427 5.2319 47.3988 8.25973 47.3988 12Z" fill="#00A6EA"/>
<path d="M40.6004 5.2319C44.3549 5.2319 47.3988 8.25973 47.3988 12V26.961H29.264V12C29.264 8.25973 32.3079 5.2319 36.0625 5.2319H40.6004Z" fill="#0065CC"/>
<path d="M14.2236 45H29.264L47.3988 26.961H14.2236C10.469 26.961 7.41953 29.9889 7.41953 33.7236V38.2319C7.41953 41.9722 10.469 45 14.2236 45Z" fill="#00A6EA"/>
<path d="M7.41953 51.7681C7.41953 48.0334 10.4634 45.0056 14.2236 45.0056H29.264V63.0445H14.2236C10.469 63.0445 7.41953 60.0167 7.41953 56.282V51.7681Z" fill="#0065CC"/>
<path d="M47.3988 78V63.039L29.264 45V78C29.264 81.7347 32.3079 84.7625 36.0625 84.7625H40.5948C44.3549 84.7681 47.3988 81.7403 47.3988 78Z" fill="#00A6EA"/>
<path d="M66.6918 26.961C66.6918 26.961 66.4736 39.6178 70.8716 45C67.4248 45 65.5392 45 65.5392 45V26.961H66.6918Z" fill="#002AA9"/>
<path d="M65.5336 64.1911C65.5336 64.1911 52.8096 63.974 47.3988 68.3488C47.3988 64.9202 47.3988 63.0445 47.3988 63.0445H65.5336V64.1911Z" fill="#002AA9"/>
<path d="M28.1058 63.039C28.1058 63.039 28.324 50.3822 23.926 45C27.3728 45 29.2585 45 29.2585 45V63.039H28.1058Z" fill="#002AA9"/>
<path d="M29.264 25.8145C29.264 25.8145 41.988 26.026 47.3988 21.6568C47.3988 25.0853 47.3988 26.961 47.3988 26.961H29.264V25.8145Z" fill="#002AA9"/>
<path d="M47.3988 26.961C47.3988 36.9239 39.2798 45 29.264 45V26.961H47.3988Z" fill="#00A6EA"/>
<path d="M65.5336 45C55.5178 45 47.3988 36.9239 47.3988 26.961H65.5336V45Z" fill="#00A6EA"/>
<path d="M47.3988 63.039C47.3988 53.0761 55.5178 45 65.5336 45V63.039H47.3988Z" fill="#00A6EA"/>
<path d="M29.264 45C39.2798 45 47.3988 53.0761 47.3988 63.039H29.264V45Z" fill="#00A6EA"/>
<path d="M51.959 45C51.959 47.5046 49.9167 49.5362 47.3988 49.5362C44.8808 49.5362 42.8385 47.5046 42.8385 45C42.8385 42.4953 44.8808 40.4638 47.3988 40.4638C49.9167 40.4694 51.959 42.4953 51.959 45Z" fill="#00A6EA"/>
<path d="M112.731 51.167C113.156 51.4898 113.436 52.3191 113.609 53.6716L115.473 69.7959C115.473 70.0686 115.35 70.1967 115.07 70.1967H111.875C111.651 70.1967 111.623 70.1243 111.601 69.7959L110.974 64.5863H104.254L101.965 69.7959C101.842 70.1187 101.764 70.1967 101.54 70.1967H98.3451C98.0933 70.1967 98.0206 70.0742 98.0933 69.7959L105.138 53.6716C105.742 52.3191 106.296 51.4954 106.822 51.167C107.348 50.8442 108.333 50.666 109.816 50.666C111.343 50.666 112.3 50.8386 112.731 51.167ZM108.523 54.6957L105.653 61.3302H110.61L109.855 54.6957C109.782 54.0223 109.754 53.9722 109.279 53.9722C108.876 53.9666 108.803 54.0668 108.523 54.6957Z" fill="#00A6EA"/>
<path d="M133.165 52.0408C134.094 52.9425 134.346 54.6178 133.943 57.1002C133.568 59.577 132.785 61.2078 131.604 62.0093C130.446 62.7829 128.432 63.1837 125.589 63.1837H122.467L121.409 69.7959C121.387 70.0687 121.236 70.1967 120.984 70.1967H117.789C117.487 70.1967 117.437 70.1243 117.465 69.7959L120.408 51.295C120.436 51.0724 120.581 50.9722 120.833 50.9443C122.92 50.7718 125.186 50.6716 127.581 50.6716C130.373 50.6661 132.231 51.1169 133.165 52.0408ZM123.927 54.0946L122.948 60.1559H125.668C127.201 60.1559 128.258 59.9833 128.812 59.6327C129.366 59.2597 129.741 58.4583 129.942 57.2059C130.144 55.9815 130.015 55.1521 129.568 54.7291C129.114 54.3061 128.135 54.1058 126.647 54.1058H123.927V54.0946Z" fill="#00A6EA"/>
<path d="M150.103 52.0408C151.032 52.9425 151.283 54.6178 150.88 57.1002C150.506 59.577 149.722 61.2078 148.542 62.0093C147.383 62.7829 145.369 63.1837 142.527 63.1837H139.404L138.347 69.7959C138.324 70.0687 138.173 70.1967 137.921 70.1967H134.727C134.424 70.1967 134.374 70.1243 134.402 69.7959L137.345 51.295C137.373 51.0724 137.519 50.9722 137.77 50.9443C139.858 50.7718 142.124 50.6716 144.519 50.6716C147.311 50.6661 149.174 51.1169 150.103 52.0408ZM140.865 54.0946L139.885 60.1559H142.605C144.138 60.1559 145.196 59.9833 145.749 59.6327C146.303 59.2597 146.678 58.4583 146.88 57.2059C147.081 55.9815 146.953 55.1521 146.505 54.7291C146.052 54.3061 145.072 54.1058 143.584 54.1058H140.865V54.0946Z" fill="#00A6EA"/>
<path d="M109.234 35.25L114.594 17.25H119.812L111.891 40H108.453L109.234 35.25ZM104.297 17.25L109.641 35.25L110.453 40H106.984L99.1094 17.25H104.297ZM130 21.1406L123.812 40H118.828L127.281 17.25H130.453L130 21.1406ZM135.141 40L128.938 21.1406L128.438 17.25H131.641L140.141 40H135.141ZM134.859 31.5312V35.2031H122.844V31.5312H134.859ZM151.109 31.8906H145.312V28.2344H151.109C152.005 28.2344 152.734 28.0885 153.297 27.7969C153.859 27.4948 154.271 27.0781 154.531 26.5469C154.792 26.0156 154.922 25.4167 154.922 24.75C154.922 24.0729 154.792 23.4427 154.531 22.8594C154.271 22.276 153.859 21.8073 153.297 21.4531C152.734 21.099 152.005 20.9219 151.109 20.9219H146.938V40H142.25V17.25H151.109C152.891 17.25 154.417 17.5729 155.688 18.2188C156.969 18.8542 157.948 19.7344 158.625 20.8594C159.302 21.9844 159.641 23.2708 159.641 24.7188C159.641 26.1875 159.302 27.4583 158.625 28.5312C157.948 29.6042 156.969 30.4323 155.688 31.0156C154.417 31.599 152.891 31.8906 151.109 31.8906ZM178.141 36.3438V40H166.031V36.3438H178.141ZM167.562 17.25V40H162.875V17.25H167.562ZM176.562 26.5156V30.0781H166.031V26.5156H176.562ZM178.125 17.25V20.9219H166.031V17.25H178.125ZM180.875 17.25H189.359C191.099 17.25 192.594 17.5104 193.844 18.0312C195.104 18.5521 196.073 19.3229 196.75 20.3438C197.427 21.3646 197.766 22.6198 197.766 24.1094C197.766 25.3281 197.557 26.375 197.141 27.25C196.734 28.1146 196.156 28.8385 195.406 29.4219C194.667 29.9948 193.797 30.4531 192.797 30.7969L191.312 31.5781H183.938L183.906 27.9219H189.391C190.214 27.9219 190.896 27.776 191.438 27.4844C191.979 27.1927 192.385 26.7865 192.656 26.2656C192.938 25.7448 193.078 25.1406 193.078 24.4531C193.078 23.724 192.943 23.0938 192.672 22.5625C192.401 22.0312 191.99 21.625 191.438 21.3438C190.885 21.0625 190.193 20.9219 189.359 20.9219H185.562V40H180.875V17.25ZM193.594 40L188.406 29.8594L193.359 29.8281L198.609 39.7812V40H193.594Z" fill="#164194"/>
</svg>
